# xmcd
#
# Track frame offsets: 
#        150
#        10830
#        21045
#        36285
#        47722
#        59595
#        68912
#        80862
#        89777
#        105680
#        113317
#        125507
#
# Disc length: 1824 seconds
#
# Revision: 1
# Processed by: cddbd v1.5.2PL0 Copyright (c) Steve Scherf et al.
# Submitted via: ExactAudioCopyFreeDBPlugin 1.0
#
DISCID=a1071e0c
DTITLE=Dave Crimmen - The Son Of Sun
DYEAR=1998
DGENRE=Blues
TTITLE0=It's Got That Beat
TTITLE1=Baby Shake It Up
TTITLE2=Lookin' Back
TTITLE3=If You Said Yes
TTITLE4=She Turns Me On
TTITLE5=The Devil's Music
TTITLE6=Somebody Else
TTITLE7=One More Time
TTITLE8=Come On And Take Me
TTITLE9=My Heart Skips A Beat
TTITLE10=Miss Lonely
TTITLE11=Dancin' Shoes
EXTD=YEAR: 1998
EXTT0=
EXTT1=
EXTT2=
EXTT3=
EXTT4=
EXTT5=
EXTT6=
EXTT7=
EXTT8=
EXTT9=
EXTT10=
EXTT11=
PLAYORDER=
